<mxfile host="app.diagrams.net" agent="Mozilla/5.0 (Windows NT 10.0; Win64; x64) AppleWebKit/537.36 (KHTML, like Gecko) Chrome/132.0.0.0 Safari/537.36" version="26.0.6">
  <diagram name="Страница — 1" id="UpL1D068e6NNf6daukPo">
    <mxGraphModel dx="1434" dy="1915" grid="1" gridSize="10" guides="1" tooltips="1" connect="1" arrows="1" fold="1" page="1" pageScale="1" pageWidth="827" pageHeight="1169" math="0" shadow="0">
      <root>
        <mxCell id="0" />
        <mxCell id="1" parent="0" />
        <mxCell id="ZUW8X6zxyrXOCQdmihbc-1" value="Начало" style="ellipse;whiteSpace=wrap;html=1;" vertex="1" parent="1">
          <mxGeometry x="260" y="-20" width="120" height="80" as="geometry" />
        </mxCell>
        <mxCell id="ZUW8X6zxyrXOCQdmihbc-7" value="" style="edgeStyle=orthogonalEdgeStyle;rounded=0;orthogonalLoop=1;jettySize=auto;html=1;" edge="1" parent="1" source="ZUW8X6zxyrXOCQdmihbc-2" target="ZUW8X6zxyrXOCQdmihbc-6">
          <mxGeometry relative="1" as="geometry" />
        </mxCell>
        <mxCell id="ZUW8X6zxyrXOCQdmihbc-18" style="edgeStyle=orthogonalEdgeStyle;rounded=0;orthogonalLoop=1;jettySize=auto;html=1;entryX=0.5;entryY=0;entryDx=0;entryDy=0;exitX=0;exitY=0.5;exitDx=0;exitDy=0;exitPerimeter=0;" edge="1" parent="1" source="ZUW8X6zxyrXOCQdmihbc-2" target="ZUW8X6zxyrXOCQdmihbc-14">
          <mxGeometry relative="1" as="geometry">
            <Array as="points">
              <mxPoint x="204" y="150" />
              <mxPoint x="204" y="290" />
              <mxPoint x="319" y="290" />
            </Array>
          </mxGeometry>
        </mxCell>
        <mxCell id="ZUW8X6zxyrXOCQdmihbc-2" value="есть задолженность?" style="strokeWidth=2;html=1;shape=mxgraph.flowchart.decision;whiteSpace=wrap;" vertex="1" parent="1">
          <mxGeometry x="224" y="100" width="190" height="100" as="geometry" />
        </mxCell>
        <mxCell id="ZUW8X6zxyrXOCQdmihbc-5" value="" style="endArrow=classic;html=1;rounded=0;exitX=0.5;exitY=1;exitDx=0;exitDy=0;entryX=0.5;entryY=0;entryDx=0;entryDy=0;entryPerimeter=0;" edge="1" parent="1" source="ZUW8X6zxyrXOCQdmihbc-1" target="ZUW8X6zxyrXOCQdmihbc-2">
          <mxGeometry width="50" height="50" relative="1" as="geometry">
            <mxPoint x="390" y="310" as="sourcePoint" />
            <mxPoint x="440" y="260" as="targetPoint" />
          </mxGeometry>
        </mxCell>
        <mxCell id="ZUW8X6zxyrXOCQdmihbc-9" value="" style="edgeStyle=orthogonalEdgeStyle;rounded=0;orthogonalLoop=1;jettySize=auto;html=1;" edge="1" parent="1" source="ZUW8X6zxyrXOCQdmihbc-6" target="ZUW8X6zxyrXOCQdmihbc-8">
          <mxGeometry relative="1" as="geometry" />
        </mxCell>
        <mxCell id="ZUW8X6zxyrXOCQdmihbc-6" value="выбор услуги" style="whiteSpace=wrap;html=1;strokeWidth=2;" vertex="1" parent="1">
          <mxGeometry x="480" y="120" width="120" height="60" as="geometry" />
        </mxCell>
        <mxCell id="ZUW8X6zxyrXOCQdmihbc-11" value="" style="edgeStyle=orthogonalEdgeStyle;rounded=0;orthogonalLoop=1;jettySize=auto;html=1;" edge="1" parent="1" source="ZUW8X6zxyrXOCQdmihbc-8" target="ZUW8X6zxyrXOCQdmihbc-10">
          <mxGeometry relative="1" as="geometry" />
        </mxCell>
        <mxCell id="ZUW8X6zxyrXOCQdmihbc-8" value="оплата счета" style="whiteSpace=wrap;html=1;strokeWidth=2;" vertex="1" parent="1">
          <mxGeometry x="680" y="120" width="120" height="60" as="geometry" />
        </mxCell>
        <mxCell id="ZUW8X6zxyrXOCQdmihbc-13" value="" style="edgeStyle=orthogonalEdgeStyle;rounded=0;orthogonalLoop=1;jettySize=auto;html=1;" edge="1" parent="1" source="ZUW8X6zxyrXOCQdmihbc-10" target="ZUW8X6zxyrXOCQdmihbc-12">
          <mxGeometry relative="1" as="geometry" />
        </mxCell>
        <mxCell id="ZUW8X6zxyrXOCQdmihbc-10" value="взнос среств" style="whiteSpace=wrap;html=1;strokeWidth=2;" vertex="1" parent="1">
          <mxGeometry x="680" y="260" width="120" height="60" as="geometry" />
        </mxCell>
        <mxCell id="ZUW8X6zxyrXOCQdmihbc-15" style="edgeStyle=orthogonalEdgeStyle;rounded=0;orthogonalLoop=1;jettySize=auto;html=1;exitX=0;exitY=0.5;exitDx=0;exitDy=0;entryX=0.5;entryY=0;entryDx=0;entryDy=0;" edge="1" parent="1" source="ZUW8X6zxyrXOCQdmihbc-12" target="ZUW8X6zxyrXOCQdmihbc-14">
          <mxGeometry relative="1" as="geometry" />
        </mxCell>
        <mxCell id="ZUW8X6zxyrXOCQdmihbc-12" value="обновление баланса на счете" style="whiteSpace=wrap;html=1;strokeWidth=2;" vertex="1" parent="1">
          <mxGeometry x="480" y="260" width="120" height="60" as="geometry" />
        </mxCell>
        <mxCell id="ZUW8X6zxyrXOCQdmihbc-14" value="Конец" style="ellipse;whiteSpace=wrap;html=1;" vertex="1" parent="1">
          <mxGeometry x="259" y="390" width="120" height="80" as="geometry" />
        </mxCell>
        <mxCell id="ZUW8X6zxyrXOCQdmihbc-16" value="да" style="text;html=1;align=center;verticalAlign=middle;resizable=0;points=[];autosize=1;strokeColor=none;fillColor=none;" vertex="1" parent="1">
          <mxGeometry x="394" y="120" width="40" height="30" as="geometry" />
        </mxCell>
        <mxCell id="ZUW8X6zxyrXOCQdmihbc-17" value="нет" style="text;html=1;align=center;verticalAlign=middle;resizable=0;points=[];autosize=1;strokeColor=none;fillColor=none;" vertex="1" parent="1">
          <mxGeometry x="200" y="120" width="40" height="30" as="geometry" />
        </mxCell>
      </root>
    </mxGraphModel>
  </diagram>
</mxfile>
